<?xml version="1.0" encoding="UTF-8" standalone="no"?>
<!DOCTYPE svg PUBLIC "-//W3C//DTD SVG 1.1//EN" "http://www.w3.org/Graphics/SVG/1.1/DTD/svg11.dtd">
<svg width="100%" height="100%" viewBox="0 0 800 200" version="1.1" xmlns="http://www.w3.org/2000/svg" xmlns:xlink="http://www.w3.org/1999/xlink" xml:space="preserve" style="fill-rule:evenodd;clip-rule:evenodd;stroke-linejoin:round;stroke-miterlimit:1.41421;">
    <g transform="matrix(0.580631,0,0,0.580631,237.841,-280.609)">
        <path d="M847.906,709.481C839.336,716.089 827.985,720.398 817.351,720.398C796.658,720.398 785.776,706.321 789.356,684.774C793.031,662.652 808.303,648.575 829.284,648.575C840.493,648.575 851.178,653.459 856.211,659.492L847.906,709.481ZM369.634,709.481C361.064,716.089 349.714,720.398 339.08,720.398C318.386,720.398 307.504,706.321 311.084,684.774C314.759,662.652 330.031,648.575 351.012,648.575C362.221,648.575 372.906,653.459 377.939,659.492L369.634,709.481ZM-250.374,654.321L-294.06,654.321L-286.041,606.055L-242.355,606.055C-226.547,606.055 -218.015,615.249 -220.497,630.188C-222.884,644.553 -234.566,654.321 -250.374,654.321M-67.818,641.967C-49.999,641.967 -43.383,650.586 -45.388,662.652L-45.961,666.1L-102.581,666.1C-98.086,652.884 -85.638,641.967 -67.818,641.967M903.336,721.835C896.15,721.835 895.189,715.514 896.43,708.045L912.849,609.215L864.564,609.215L862.369,622.431C854.555,612.376 841.139,606.63 822.457,606.63C781.358,606.63 747.798,639.094 740.208,684.774C738.501,695.05 738.384,704.644 739.681,713.351C733.224,716.653 721.488,723.182 713.056,721.835C706.14,720.73 705.484,715.514 706.725,708.045L712.548,672.995C718.658,636.221 707.767,606.63 668.966,606.63C645.399,606.63 626.148,616.972 613.032,631.912C608.136,614.674 594.287,606.343 570.432,606.343C551.176,606.343 534.798,613.238 522.062,624.155L524.544,609.215L476.26,609.215L459.035,712.891C451.292,716.297 434.233,723.181 425.064,721.835C418.121,720.815 416.917,715.514 418.158,708.045L434.577,609.215L386.292,609.215L384.097,622.431C376.283,612.376 362.867,606.63 344.185,606.63C303.086,606.63 269.526,639.094 261.937,684.774C260.091,695.885 260.092,706.207 261.746,715.461C252.7,718.394 239.957,721.835 232.207,721.835C224.735,721.835 223.103,716.089 224.582,707.183L251.784,547.491L203.5,547.491L177.516,700.293C147.211,704.863 141.576,719.773 95.488,721.26C67.611,722.16 60.222,703.448 63.563,683.337C67,662.652 80.739,647.426 99.708,647.426C117.815,647.426 122.707,657.768 121.088,674.431L160.683,674.543C169.623,630.907 150.985,605.193 106.437,605.193C58.439,605.193 21.24,638.807 13.603,684.774C12.449,691.717 11.958,698.355 12.148,704.628C-7.864,708.921 -25.578,724.903 -75.912,725.282C-98.07,725.449 -108.54,714.078 -108.503,696.553L-12.22,696.553C-9.589,691.094 -5.861,677.304 -4.285,667.823C1.442,633.348 -15.723,605.193 -61.421,605.193C-109.706,605.193 -147.049,639.669 -154.543,684.774C-156.292,695.302 -156.471,705.198 -155.009,714.2C-162.325,717.293 -173.214,721.506 -183.799,720.686C-201.623,719.304 -216.287,703.448 -231.145,687.36C-200.54,681.326 -175.309,659.205 -170.202,628.464C-162.612,582.784 -196.586,564.11 -234.524,564.11L-327.357,564.11L-359.814,759.47L-311.53,759.47L-299.835,689.083L-289.489,689.083C-266.821,706.608 -243.429,763.062 -198.48,762.343C-168.764,761.868 -145.95,753.249 -135.548,748.682C-124.005,757.803 -107.388,763.19 -85.135,763.492C-29.281,764.252 -2.563,740.767 20.861,735.853C31.331,752.54 51.458,762.807 82.724,763.492C128.997,764.507 142.925,744.062 174.132,741.411C177.45,756.052 189.025,761.612 205.933,762.343C238.096,763.734 264.351,751.689 279.129,748.303C288.904,757.071 302.214,762.056 318.363,762.056C338.481,762.056 355.816,752.862 367.88,740.796C370.572,755.735 381.325,761.965 398.502,762.343C418.777,762.789 441.214,755.566 452.62,751.499L451.296,759.47L499.581,759.47L514.807,667.823C520.55,659.205 530.509,651.16 544.017,651.16C560.687,651.16 567.256,661.79 564.106,680.752L551.027,759.47L599.312,759.47L614.634,667.249C620.042,658.917 629.953,651.16 642.599,651.16C658.981,651.16 666.125,661.79 662.927,681.039L656.483,719.824C651.376,750.564 663.729,759.968 686.782,762.343C704.815,764.201 742.086,751.792 755.83,746.839C765.727,756.518 779.605,762.056 796.635,762.056C816.753,762.056 834.088,752.862 846.152,740.796C848.844,755.735 859.53,762.343 876.774,762.343C891.145,762.343 905.178,759.183 913.751,756.023L918.374,717.813C913.394,720.111 908.509,721.835 903.336,721.835" style="fill:black;fill-rule:nonzero;"/>
    </g>
</svg>
